<svg width="47" height="47" viewBox="0 0 47 47" fill="none" xmlns="http://www.w3.org/2000/svg">
<path d="M23.5002 0.583008C10.8502 0.583008 0.583496 10.8497 0.583496 23.4997C0.583496 36.1497 10.8502 46.4163 23.5002 46.4163C36.1502 46.4163 46.4168 36.1497 46.4168 23.4997C46.4168 10.8497 36.1502 0.583008 23.5002 0.583008ZM40.596 16.8997L34.2252 19.5351C33.0564 16.4184 30.6043 13.9434 27.4647 12.7976L30.1002 6.42676C34.9127 8.26009 38.7397 12.0872 40.596 16.8997ZM23.5002 30.3747C19.696 30.3747 16.6252 27.3038 16.6252 23.4997C16.6252 19.6955 19.696 16.6247 23.5002 16.6247C27.3043 16.6247 30.3752 19.6955 30.3752 23.4997C30.3752 27.3038 27.3043 30.3747 23.5002 30.3747ZM16.9231 6.40384L19.6043 12.7747C16.4418 13.9205 13.9439 16.4184 12.7752 19.5809L6.40433 16.9226C8.26058 12.0872 12.0877 8.26009 16.9231 6.40384ZM6.40433 30.0768L12.7752 27.4413C13.9439 30.6038 16.4189 33.0788 19.5814 34.2247L16.9002 40.5955C12.0877 38.7393 8.26058 34.9122 6.40433 30.0768ZM30.1002 40.5955L27.4647 34.2247C30.6043 33.0559 33.0793 30.5809 34.2252 27.4184L40.596 30.0997C38.7397 34.9122 34.9127 38.7393 30.1002 40.5955Z" fill="white"/>
</svg>
